REM DIRINDEX 1\2\6,1\2\7,1\2\8,1\2\9,1\3\10,1\3\11,1\4\12,1\4\13,1\4\14,1\5\15,1\5\16,1\5\17
REM DIRNAME cjc029,folder01,folder02,folder03,folder04,folder05,folder06,folder07,folder08,folder09,folder10,folder11,folder12,folder13,folder14,folder15,folder16
TITLE ""
FILE "1400_3_sec09_0885_0900.mp3" MP3
  TRACK 01 AUDIO
    TITLE "0:"
    INDEX 01 00:00:00
  TRACK 02 AUDIO
    TITLE "17:cjc029_6205"
    INDEX 01 00:00:15
  TRACK 03 AUDIO
    TITLE "0:"
    INDEX 01 00:01:19
  TRACK 04 AUDIO
    TITLE "16:cjc029_6206"
    INDEX 01 00:01:24
  TRACK 05 AUDIO
    TITLE "0:"
    INDEX 01 00:02:24
  TRACK 06 AUDIO
    TITLE "17:cjc029_6207"
    INDEX 01 00:03:10
  TRACK 07 AUDIO
    TITLE "0:"
    INDEX 01 00:04:25
  TRACK 08 AUDIO
    TITLE "16:cjc029_6208"
    INDEX 01 00:04:35
  TRACK 09 AUDIO
    TITLE "0:"
    INDEX 01 00:05:40
  TRACK 10 AUDIO
    TITLE "17:cjc029_6209"
    INDEX 01 00:06:22
  TRACK 11 AUDIO
    TITLE "0:"
    INDEX 01 00:08:64
  TRACK 12 AUDIO
    TITLE "16:cjc029_6210"
    INDEX 01 00:08:68
  TRACK 13 AUDIO
    TITLE "0:"
    INDEX 01 00:10:10
  TRACK 14 AUDIO
    TITLE "17:cjc029_6211"
    INDEX 01 00:10:68
  TRACK 15 AUDIO
    TITLE "0:"
    INDEX 01 00:12:07
  TRACK 16 AUDIO
    TITLE "16:cjc029_6212"
    INDEX 01 00:12:11
  TRACK 17 AUDIO
    TITLE "0:"
    INDEX 01 00:13:18
  TRACK 18 AUDIO
    TITLE "17:cjc029_6213"
    INDEX 01 00:14:02
  TRACK 19 AUDIO
    TITLE "0:"
    INDEX 01 00:15:42
  TRACK 20 AUDIO
    TITLE "16:cjc029_6214"
    INDEX 01 00:15:48
  TRACK 21 AUDIO
    TITLE "0:"
    INDEX 01 00:16:67
  TRACK 22 AUDIO
    TITLE "17:cjc029_6215"
    INDEX 01 00:17:51
  TRACK 23 AUDIO
    TITLE "0:"
    INDEX 01 00:19:67
  TRACK 24 AUDIO
    TITLE "16:cjc029_6216"
    INDEX 01 00:19:73
  TRACK 25 AUDIO
    TITLE "0:"
    INDEX 01 00:21:09
  TRACK 26 AUDIO
    TITLE "17:cjc029_6217"
    INDEX 01 00:21:68
  TRACK 27 AUDIO
    TITLE "0:"
    INDEX 01 00:23:18
  TRACK 28 AUDIO
    TITLE "16:cjc029_6218"
    INDEX 01 00:23:24
  TRACK 29 AUDIO
    TITLE "0:"
    INDEX 01 00:24:22
  TRACK 30 AUDIO
    TITLE "17:cjc029_6219"
    INDEX 01 00:25:05
  TRACK 31 AUDIO
    TITLE "0:"
    INDEX 01 00:26:15
  TRACK 32 AUDIO
    TITLE "16:cjc029_6220"
    INDEX 01 00:26:22
  TRACK 33 AUDIO
    TITLE "0:"
    INDEX 01 00:27:24
  TRACK 34 AUDIO
    TITLE "17:cjc029_6221"
    INDEX 01 00:28:10
  TRACK 35 AUDIO
    TITLE "0:"
    INDEX 01 00:29:34
  TRACK 36 AUDIO
    TITLE "16:cjc029_6222"
    INDEX 01 00:29:40
  TRACK 37 AUDIO
    TITLE "0:"
    INDEX 01 00:30:55
  TRACK 38 AUDIO
    TITLE "17:cjc029_6223"
    INDEX 01 00:31:41
  TRACK 39 AUDIO
    TITLE "0:"
    INDEX 01 00:33:09
  TRACK 40 AUDIO
    TITLE "16:cjc029_6224"
    INDEX 01 00:33:13
  TRACK 41 AUDIO
    TITLE "0:"
    INDEX 01 00:34:30
  TRACK 42 AUDIO
    TITLE "17:cjc029_6225"
    INDEX 01 00:35:14
  TRACK 43 AUDIO
    TITLE "0:"
    INDEX 01 00:36:33
  TRACK 44 AUDIO
    TITLE "16:cjc029_6226"
    INDEX 01 00:36:42
  TRACK 45 AUDIO
    TITLE "0:"
    INDEX 01 00:37:48
  TRACK 46 AUDIO
    TITLE "17:cjc029_6227"
    INDEX 01 00:38:31
  TRACK 47 AUDIO
    TITLE "0:"
    INDEX 01 00:39:43
  TRACK 48 AUDIO
    TITLE "16:cjc029_6228"
    INDEX 01 00:39:47
  TRACK 49 AUDIO
    TITLE "0:"
    INDEX 01 00:40:58
  TRACK 50 AUDIO
    TITLE "17:cjc029_6229"
    INDEX 01 00:41:40
  TRACK 51 AUDIO
    TITLE "0:"
    INDEX 01 00:44:42
  TRACK 52 AUDIO
    TITLE "16:cjc029_6230"
    INDEX 01 00:44:48
  TRACK 53 AUDIO
    TITLE "0:"
    INDEX 01 00:45:57
  TRACK 54 AUDIO
    TITLE "17:cjc029_6231"
    INDEX 01 00:46:43
  TRACK 55 AUDIO
    TITLE "0:"
    INDEX 01 00:47:58
  TRACK 56 AUDIO
    TITLE "16:cjc029_6232"
    INDEX 01 00:47:62
  TRACK 57 AUDIO
    TITLE "0:"
    INDEX 01 00:48:69
  TRACK 58 AUDIO
    TITLE "17:cjc029_6233"
    INDEX 01 00:49:57
  TRACK 59 AUDIO
    TITLE "0:"
    INDEX 01 00:51:03
  TRACK 60 AUDIO
    TITLE "16:cjc029_6234"
    INDEX 01 00:51:11
  TRACK 61 AUDIO
    TITLE "0:"
    INDEX 01 00:52:18
  TRACK 62 AUDIO
    TITLE "17:cjc029_6235"
    INDEX 01 00:53:02
  TRACK 63 AUDIO
    TITLE "0:"
    INDEX 01 00:56:63
  TRACK 64 AUDIO
    TITLE "16:cjc029_6236"
    INDEX 01 00:56:69
  TRACK 65 AUDIO
    TITLE "0:"
    INDEX 01 00:58:03
